<svg xmlns="http://www.w3.org/2000/svg" width="900" height="560" viewBox="0 0 900 560">
<style>
 .bg { fill: #f8fafc; }
 .title { font: bold 15px -apple-system,BlinkMacSystemFont,sans-serif; fill: #1f2937; }
 .tickLabel { font: 11px -apple-system,BlinkMacSystemFont,sans-serif; fill: #9ca3af; }
 .xLabel { font: 12px -apple-system,BlinkMacSystemFont,sans-serif; fill: #374151; text-anchor: middle; }
 .dataLabel { font: 10px -apple-system,BlinkMacSystemFont,sans-serif; fill: #1f2937; }
 .legendText { font: 11px -apple-system,BlinkMacSystemFont,sans-serif; fill: #374151; }
 .gridline { stroke: #e5e7eb; stroke-width: 1; }
 .baseline { stroke: #d1d5db; stroke-width: 1; }
 .refLine { stroke: #d1d5db; stroke-width: 1.5; stroke-dasharray: 6,3; }
 .dot { stroke: #fff; stroke-width: 1.5; }
 .line-sse { stroke: #ef4444; stroke-width: 2.5; fill: none; }
 .line-normal { stroke: #94a3b8; stroke-width: 1.5; fill: none; }
 .label-sse { fill: #ef4444; font-weight: bold; font-size: 11px; }
</style>
<rect class="bg" x="0" y="0" width="900" height="560" rx="12"/>
<text x="30" y="32" class="title">perf Advantage vs Concurrency (vs Spring MVC Tomcat)</text>

<line x1="70" y1="430" x2="650" y2="430" class="baseline"/>
<line x1="70" y1="378.57142857142856" x2="650" y2="378.57142857142856" class="gridline"/>
<line x1="70" y1="327.1428571428571" x2="650" y2="327.1428571428571" class="gridline"/>
<line x1="70" y1="275.7142857142857" x2="650" y2="275.7142857142857" class="gridline"/>
<line x1="70" y1="224.28571428571428" x2="650" y2="224.28571428571428" class="gridline"/>
<line x1="70" y1="172.85714285714283" x2="650" y2="172.85714285714283" class="gridline"/>
<line x1="70" y1="121.42857142857144" x2="650" y2="121.42857142857144" class="gridline"/>
<line x1="70" y1="70" x2="650" y2="70" class="gridline"/>
<text x="58" y="434" class="tickLabel" text-anchor="end">0</text>
<text x="58" y="382.57142857142856" class="tickLabel" text-anchor="end">2x</text>
<text x="58" y="331.1428571428571" class="tickLabel" text-anchor="end">4x</text>
<text x="58" y="279.7142857142857" class="tickLabel" text-anchor="end">6x</text>
<text x="58" y="228.28571428571428" class="tickLabel" text-anchor="end">8x</text>
<text x="58" y="176.85714285714283" class="tickLabel" text-anchor="end">10x</text>
<text x="58" y="125.42857142857144" class="tickLabel" text-anchor="end">12x</text>
<text x="58" y="74" class="tickLabel" text-anchor="end">14x</text>
<line x1="70" y1="404" x2="650" y2="404" class="refLine"/>
<text x="110" y="480" class="xLabel">4 threads</text>
<text x="370" y="480" class="xLabel">8 threads</text>
<text x="630" y="480" class="xLabel">16 threads</text>
<text x="370" y="505" class="tickLabel" text-anchor="middle">Concurrent Threads</text>

 <polyline class="line-sse" points="110,105 370,124 630,231"/>
 <circle cx="110" cy="105" r="5" class="dot" fill="#ef4444"/>
 <text x="110" y="99" class="dataLabel label-sse" text-anchor="middle">12.63x</text>
 <circle cx="370" cy="124" r="5" class="dot" fill="#ef4444"/>
 <text x="370" y="118" class="dataLabel label-sse" text-anchor="middle">11.90x</text>
 <circle cx="630" cy="231" r="5" class="dot" fill="#ef4444"/>
 <text x="630" y="225" class="dataLabel label-sse" text-anchor="middle">7.72x</text>

 <polyline class="line-normal" points="110,382 370,380 630,389"/>
 <circle cx="110" cy="382" r="3" class="dot" fill="#94a3b8"/>
 <circle cx="370" cy="380" r="3" class="dot" fill="#94a3b8"/>
 <circle cx="630" cy="389" r="3" class="dot" fill="#94a3b8"/>

 <polyline class="line-normal" points="110,372 370,377 630,383"/>
 <circle cx="110" cy="372" r="3" class="dot" fill="#94a3b8"/>
 <circle cx="370" cy="377" r="3" class="dot" fill="#94a3b8"/>
 <circle cx="630" cy="383" r="3" class="dot" fill="#94a3b8"/>

 <polyline class="line-normal" points="110,390 370,390 630,399"/>
 <circle cx="110" cy="390" r="3" class="dot" fill="#94a3b8"/>
 <circle cx="370" cy="390" r="3" class="dot" fill="#94a3b8"/>
 <circle cx="630" cy="399" r="3" class="dot" fill="#94a3b8"/>

 <polyline class="line-normal" points="110,384 370,382 630,388"/>
 <circle cx="110" cy="384" r="3" class="dot" fill="#94a3b8"/>
 <circle cx="370" cy="382" r="3" class="dot" fill="#94a3b8"/>
 <circle cx="630" cy="388" r="3" class="dot" fill="#94a3b8"/>

 <polyline class="line-normal" points="110,375 370,376 630,386"/>
 <circle cx="110" cy="375" r="3" class="dot" fill="#94a3b8"/>
 <circle cx="370" cy="376" r="3" class="dot" fill="#94a3b8"/>
 <circle cx="630" cy="386" r="3" class="dot" fill="#94a3b8"/>

 <polyline class="line-normal" points="110,383 370,386 630,395"/>
 <circle cx="110" cy="383" r="3" class="dot" fill="#94a3b8"/>
 <circle cx="370" cy="386" r="3" class="dot" fill="#94a3b8"/>
 <circle cx="630" cy="395" r="3" class="dot" fill="#94a3b8"/>

 <!-- Legend -->
 <rect x="30" y="52" width="12" height="12" rx="2" fill="#ef4444"/>
 <text x="46" y="62" class="legendText label-sse">SSE</text>
 <rect x="75" y="52" width="12" height="12" rx="2" fill="#94a3b8"/>
 <text x="91" y="62" class="legendText">json / get / bytes / valid / async / bytesLarge</text>
 <line x1="30" y1="84" x2="42" y2="84" stroke="#d1d5db" stroke-width="1.5" stroke-dasharray="6,3"/>
 <text x="46" y="88" class="legendText">MVC baseline (1.0x)</text>

 <!-- Data summary table -->
 <rect x="660" y="88" width="210" height="155" rx="6" fill="#f1f5f9"/>
 <text x="672" y="108" class="legendText" font-weight="bold">API</text>
 <text x="725" y="108" class="legendText" font-weight="bold" text-anchor="middle">4t</text>
 <text x="775" y="108" class="legendText" font-weight="bold" text-anchor="middle">8t</text>
 <text x="825" y="108" class="legendText" font-weight="bold" text-anchor="middle">16t</text>
 <line x1="670" y1="115" x2="860" y2="115" stroke="#e2e8f0" stroke-width="1"/>
 <text x="672" y="130" class="legendText" fill="#ef4444" font-weight="bold">SSE</text>
 <text x="725" y="130" class="legendText" text-anchor="middle" fill="#ef4444" font-weight="bold">12.63x</text>
 <text x="775" y="130" class="legendText" text-anchor="middle" fill="#ef4444" font-weight="bold">11.90x</text>
 <text x="825" y="130" class="legendText" text-anchor="middle" fill="#ef4444" font-weight="bold">7.72x</text>
 <text x="672" y="147" class="legendText">json</text>
 <text x="725" y="147" class="legendText" text-anchor="middle">1.88x</text>
 <text x="775" y="147" class="legendText" text-anchor="middle">1.93x</text>
 <text x="825" y="147" class="legendText" text-anchor="middle">1.61x</text>
 <text x="672" y="164" class="legendText">get</text>
 <text x="725" y="164" class="legendText" text-anchor="middle">2.26x</text>
 <text x="775" y="164" class="legendText" text-anchor="middle">2.08x</text>
 <text x="825" y="164" class="legendText" text-anchor="middle">1.84x</text>
 <text x="672" y="181" class="legendText">bytes</text>
 <text x="725" y="181" class="legendText" text-anchor="middle">1.56x</text>
 <text x="775" y="181" class="legendText" text-anchor="middle">1.54x</text>
 <text x="825" y="181" class="legendText" text-anchor="middle">1.22x</text>
 <text x="672" y="198" class="legendText">valid</text>
 <text x="725" y="198" class="legendText" text-anchor="middle">1.79x</text>
 <text x="775" y="198" class="legendText" text-anchor="middle">1.86x</text>
 <text x="825" y="198" class="legendText" text-anchor="middle">1.65x</text>
 <text x="672" y="215" class="legendText">async</text>
 <text x="725" y="215" class="legendText" text-anchor="middle">2.12x</text>
 <text x="775" y="215" class="legendText" text-anchor="middle">2.10x</text>
 <text x="825" y="215" class="legendText" text-anchor="middle">1.73x</text>
 <text x="672" y="232" class="legendText">bytesLarge</text>
 <text x="725" y="232" class="legendText" text-anchor="middle">1.82x</text>
 <text x="775" y="232" class="legendText" text-anchor="middle">1.73x</text>
 <text x="825" y="232" class="legendText" text-anchor="middle">1.35x</text>
</svg>
