<svg xmlns="http://www.w3.org/2000/svg" width="1100" height="420" viewBox="0 0 1100 420">
<style>
 .bg { fill: #f8fafc; }
 .title { font: bold 14px -apple-system,BlinkMacSystemFont,sans-serif; fill: #1f2937; }
 .sectionTitle { font: bold 13px -apple-system,BlinkMacSystemFont,sans-serif; fill: #1f2937; text-anchor: middle; }
 .tickLabel { font: 11px -apple-system,BlinkMacSystemFont,sans-serif; fill: #9ca3af; }
 .groupLabel { font: 11px -apple-system,BlinkMacSystemFont,sans-serif; fill: #374151; text-anchor: middle; }
 .dataLabel { font: 9px -apple-system,BlinkMacSystemFont,sans-serif; fill: #1f2937; text-anchor: middle; }
 .legendText { font: 11px -apple-system,BlinkMacSystemFont,sans-serif; fill: #374151; }
 .gridline { stroke: #e5e7eb; stroke-width: 1; }
 .baseline { stroke: #d1d5db; stroke-width: 1; }
 .bar-perf { fill: #22c55e; }
 .bar-tomcat { fill: #3b82f6; }
 .bar-undertow { fill: #f59e0b; }
 .bar-webflux { fill: #8b5cf6; }
</style>
<rect class="bg" x="0" y="0" width="1100" height="420" rx="12"/>
<text x="30" y="28" class="title">4-Thread p50 Latency (ms) — Lower is better</text>

  <rect x="560" y="14" width="12" height="12" rx="2" class="bar-perf"/>
 <text x="576" y="24" class="legendText">perf</text>
 <rect x="615" y="14" width="12" height="12" rx="2" class="bar-tomcat"/>
 <text x="631" y="24" class="legendText">Tomcat</text>
 <rect x="685" y="14" width="12" height="12" rx="2" class="bar-undertow"/>
 <text x="701" y="24" class="legendText">Undertow</text>
 <rect x="760" y="14" width="12" height="12" rx="2" class="bar-webflux"/>
 <text x="776" y="24" class="legendText">WebFlux</text>

 <!-- ========== LEFT PANEL: regular APIs ========== -->
 <text x="385" y="55" class="sectionTitle">Regular APIs</text>

 <line x1="60" y1="335" x2="60" y2="55" stroke="#d1d5db" stroke-width="1"/>
 <line x1="60" y1="335" x2="730" y2="335" class="baseline"/>
 <text x="48" y="339" class="tickLabel" text-anchor="end">0</text>
 <line x1="60" y1="280" x2="730" y2="280" class="gridline"/>
 <text x="48" y="284" class="tickLabel" text-anchor="end">0.2</text>
 <line x1="60" y1="225" x2="730" y2="225" class="gridline"/>
 <text x="48" y="229" class="tickLabel" text-anchor="end">0.4</text>
 <line x1="60" y1="170" x2="730" y2="170" class="gridline"/>
 <text x="48" y="174" class="tickLabel" text-anchor="end">0.6</text>
 <line x1="60" y1="115" x2="730" y2="115" class="gridline"/>
 <text x="48" y="119" class="tickLabel" text-anchor="end">0.8</text>
 <line x1="60" y1="60" x2="730" y2="60" class="gridline"/>
 <text x="48" y="64" class="tickLabel" text-anchor="end">1.0ms</text>

 <!-- json -->
 <rect x="74" y="305" width="18" height="30" class="bar-perf"/>
 <text x="83" y="299" class="dataLabel">0.11</text>
 <rect x="99" y="280" width="18" height="55" class="bar-tomcat"/>
 <text x="108" y="274" class="dataLabel">0.20</text>
 <rect x="124" y="280" width="18" height="55" class="bar-undertow"/>
 <text x="133" y="274" class="dataLabel">0.20</text>
 <rect x="149" y="274" width="18" height="61" class="bar-webflux"/>
 <text x="158" y="268" class="dataLabel">0.22</text>
 <text x="112" y="365" class="groupLabel">json</text>

 <!-- get -->
 <rect x="202" y="307" width="18" height="28" class="bar-perf"/>
 <text x="211" y="301" class="dataLabel">0.10</text>
 <rect x="227" y="274" width="18" height="61" class="bar-tomcat"/>
 <text x="236" y="268" class="dataLabel">0.22</text>
 <rect x="252" y="269" width="18" height="66" class="bar-undertow"/>
 <text x="261" y="263" class="dataLabel">0.24</text>
 <rect x="277" y="269" width="18" height="66" class="bar-webflux"/>
 <text x="286" y="263" class="dataLabel">0.24</text>
 <text x="240" y="365" class="groupLabel">get</text>

 <!-- bytes -->
 <rect x="330" y="307" width="18" height="28" class="bar-perf"/>
 <text x="339" y="301" class="dataLabel">0.10</text>
 <rect x="355" y="294" width="18" height="41" class="bar-tomcat"/>
 <text x="364" y="288" class="dataLabel">0.15</text>
 <rect x="380" y="294" width="18" height="41" class="bar-undertow"/>
 <text x="389" y="288" class="dataLabel">0.15</text>
 <rect x="405" y="291" width="18" height="44" class="bar-webflux"/>
 <text x="414" y="285" class="dataLabel">0.16</text>
 <text x="368" y="365" class="groupLabel">bytes</text>

 <!-- valid -->
 <rect x="458" y="305" width="18" height="30" class="bar-perf"/>
 <text x="467" y="299" class="dataLabel">0.11</text>
 <rect x="483" y="280" width="18" height="55" class="bar-tomcat"/>
 <text x="492" y="274" class="dataLabel">0.20</text>
 <rect x="508" y="280" width="18" height="55" class="bar-undertow"/>
 <text x="517" y="274" class="dataLabel">0.20</text>
 <rect x="533" y="274" width="18" height="61" class="bar-webflux"/>
 <text x="542" y="268" class="dataLabel">0.22</text>
 <text x="496" y="365" class="groupLabel">valid</text>

 <!-- async -->
 <rect x="586" y="307" width="18" height="28" class="bar-perf"/>
 <text x="595" y="301" class="dataLabel">0.10</text>
 <rect x="611" y="274" width="18" height="61" class="bar-tomcat"/>
 <text x="620" y="268" class="dataLabel">0.22</text>
 <rect x="636" y="272" width="18" height="63" class="bar-undertow"/>
 <text x="645" y="266" class="dataLabel">0.23</text>
 <rect x="661" y="291" width="18" height="44" class="bar-webflux"/>
 <text x="670" y="285" class="dataLabel">0.16</text>
 <text x="624" y="365" class="groupLabel">async</text>

 <!-- bytesLarge -->
 <rect x="714" y="277" width="18" height="58" class="bar-perf"/>
 <text x="723" y="271" class="dataLabel">0.21</text>
 <rect x="739" y="230" width="18" height="105" class="bar-tomcat"/>
 <text x="748" y="224" class="dataLabel">0.38</text>
 <rect x="764" y="255" width="18" height="80" class="bar-undertow"/>
 <text x="773" y="249" class="dataLabel">0.29</text>
 <rect x="789" y="250" width="18" height="85" class="bar-webflux"/>
 <text x="798" y="244" class="dataLabel">0.31</text>
 <text x="752" y="365" class="groupLabel">bytesLarge</text>

 <!-- ========== RIGHT PANEL: SSE ========== -->
 <text x="920" y="55" class="sectionTitle">SSE</text>

 <line x1="800" y1="335" x2="800" y2="55" stroke="#d1d5db" stroke-width="1"/>
 <line x1="800" y1="335" x2="1060" y2="335" class="baseline"/>
 <text x="788" y="339" class="tickLabel" text-anchor="end">0</text>
 <line x1="800" y1="265" x2="1060" y2="265" class="gridline"/>
 <text x="788" y="269" class="tickLabel" text-anchor="end">1ms</text>
 <line x1="800" y1="195" x2="1060" y2="195" class="gridline"/>
 <text x="788" y="199" class="tickLabel" text-anchor="end">2ms</text>
 <line x1="800" y1="125" x2="1060" y2="125" class="gridline"/>
 <text x="788" y="129" class="tickLabel" text-anchor="end">3ms</text>
 <line x1="800" y1="55" x2="1060" y2="55" class="gridline"/>
 <text x="788" y="59" class="tickLabel" text-anchor="end">4ms</text>

 <!-- sse -->
 <rect x="892" y="315" width="22" height="20" class="bar-perf"/>
 <text x="903" y="309" class="dataLabel">0.28</text>
 <rect x="917" y="176" width="22" height="159" class="bar-tomcat"/>
 <text x="928" y="170" class="dataLabel">2.27</text>
 <rect x="967" y="247" width="22" height="88" class="bar-webflux"/>
 <text x="978" y="241" class="dataLabel">1.26</text>
 <text x="930" y="365" class="groupLabel">sse</text>

 <line x1="750" y1="50" x2="750" y2="370" stroke="#e2e8f0" stroke-width="1" stroke-dasharray="4,4"/>
</svg>
