<svg xmlns="http://www.w3.org/2000/svg" width="720" height="530" viewBox="0 0 720 530">
<style>
 .card { fill: #f8fafc; }
 .title { font: bold 15px -apple-system,BlinkMacSystemFont,sans-serif; fill: #1f2937; }
 .subtitle { font: 12px -apple-system,BlinkMacSystemFont,sans-serif; fill: #6b7280; }
 .sectionLabel { font: bold 13px -apple-system,BlinkMacSystemFont,sans-serif; fill: #1f2937; }
 .barLabel { font: bold 11px -apple-system,BlinkMacSystemFont,sans-serif; fill: #fff; text-anchor: middle; }
 .barPct { font: 10px -apple-system,BlinkMacSystemFont,sans-serif; fill: #fff; text-anchor: middle; }
 .legendLabel { font: 11px -apple-system,BlinkMacSystemFont,sans-serif; fill: #374151; }
 .overheadBracket { font: bold 12px -apple-system,BlinkMacSystemFont,sans-serif; fill: #dc2626; text-anchor: middle; }
 .calloutVal { font: bold 14px -apple-system,BlinkMacSystemFont,sans-serif; fill: #16a34a; }
 .calloutLabel { font: 11px -apple-system,BlinkMacSystemFont,sans-serif; fill: #6b7280; }
 .arrowLabel { font: 12px -apple-system,BlinkMacSystemFont,sans-serif; fill: #2563eb; text-anchor: middle; }
</style>
<rect class="card" x="0" y="0" width="720" height="480" rx="12"/>

<text x="30" y="30" class="title">Where Does the CPU Go? — Framework Runtime Overhead</text>
<text x="30" y="50" class="subtitle">1c1g environment, device data reporting + validation + Redis/ClickHouse writes</text>

<!-- ============ Before: Spring MVC ============ -->
<text x="30" y="80" class="sectionLabel">Before: Spring MVC (Tomcat)</text>

<!-- Stacked bar segments -->
<!-- Parameter resolution 23.6% = 118px -->
<rect x="30" y="95" width="118" height="36" rx="2" fill="#ef4444"/>
<text x="89" y="111" class="barLabel" font-size="10">Parameter</text>
<text x="89" y="124" class="barPct">23.6%</text>

<!-- Return value orchestration 17.1% = 85px -->
<rect x="148" y="95" width="85" height="36" rx="2" fill="#f97316"/>
<text x="191" y="111" class="barLabel" font-size="10">Return Value</text>
<text x="191" y="124" class="barPct">17.1%</text>

<!-- Reflection 12.1% = 60px -->
<rect x="233" y="95" width="60" height="36" rx="2" fill="#f59e0b"/>
<text x="263" y="111" class="barLabel" font-size="10">Reflection</text>
<text x="263" y="124" class="barPct">12.1%</text>

<!-- Validation 6.6% = 33px -->
<rect x="293" y="95" width="33" height="36" rx="2" fill="#eab308"/>
<text x="310" y="111" class="barLabel" font-size="9">Valid</text>
<text x="310" y="124" class="barPct">6.6%</text>

<!-- Route matching 3.8% = 19px -->
<rect x="326" y="95" width="19" height="36" rx="2" fill="#ec4899"/>
<text x="335" y="118" class="barLabel" font-size="7">Route</text>

<!-- Content negotiation 0.7% = 4px -->
<rect x="345" y="95" width="4" height="36" fill="#a855f7"/>

<!-- Business logic + IO + other ~37% = 182px -->
<rect x="349" y="95" width="182" height="36" rx="2" fill="#22c55e"/>
<text x="440" y="111" class="barLabel" font-size="10">Business + IO + Other</text>
<text x="440" y="124" class="barPct">~37%</text>

<!-- Bracket for framework overhead -->
<line x1="30" y1="145" x2="30" y2="155" stroke="#dc2626" stroke-width="1.5"/>
<line x1="30" y1="155" x2="349" y2="155" stroke="#dc2626" stroke-width="1.5"/>
<line x1="349" y1="145" x2="349" y2="155" stroke="#dc2626" stroke-width="1.5"/>
<polygon points="349,148 343,148 346,141" fill="#dc2626"/>
<polygon points="30,148 36,148 33,141" fill="#dc2626"/>
<text x="190" y="168" class="overheadBracket">Framework Overhead  63%</text>

<!-- ============ Arrow: eliminate overhead ============ -->
<line x1="190" y1="178" x2="190" y2="218" class="arrow" stroke="#2563eb" stroke-width="2"/>
<polygon points="190,218 182,208 198,208" fill="#2563eb"/>
<text x="190" y="235" class="arrowLabel">Eliminate framework overhead — precompute at startup, zero reflection at runtime</text>

<!-- ============ After: Spring Web ============ -->
<text x="30" y="265" class="sectionLabel">After: WebPerf (Netty)</text>

<!-- Bar showing reclaimed CPU -->
<rect x="30" y="280" width="500" height="36" rx="2" fill="#22c55e"/>
<text x="440" y="296" class="barLabel" font-size="10">All CPU Used for I/O &amp; Network</text>
<text x="440" y="309" class="barPct" font-size="11">Framework overhead reduced to noise level</text>

<!-- Bar annotation: eliminated items shown as reclaimed -->
<rect x="30" y="280" width="118" height="36" rx="2" fill="#22c55e" opacity="0.7" stroke="#86efac" stroke-width="1" stroke-dasharray="4,3"/>
<text x="89" y="300" class="barLabel" font-size="9" fill="#86efac" text-decoration="line-through">Parameter</text>

<rect x="148" y="280" width="85" height="36" rx="2" fill="#22c55e" opacity="0.7" stroke="#86efac" stroke-width="1" stroke-dasharray="4,3"/>
<text x="191" y="300" class="barLabel" font-size="9" fill="#86efac" text-decoration="line-through">Return Value</text>

<rect x="233" y="280" width="60" height="36" rx="2" fill="#22c55e" opacity="0.7" stroke="#86efac" stroke-width="1" stroke-dasharray="4,3"/>
<text x="263" y="300" class="barLabel" font-size="9" fill="#86efac" text-decoration="line-through">Reflection</text>

<rect x="293" y="280" width="56" height="36" rx="2" fill="#22c55e" opacity="0.7" stroke="#86efac" stroke-width="1" stroke-dasharray="4,3"/>
<text x="321" y="300" class="barLabel" font-size="9" fill="#86efac" text-decoration="line-through">Other</text>

<!-- Key results callouts -->
<rect x="560" y="120" width="135" height="50" rx="6" fill="#f0fdf4" stroke="#86efac" stroke-width="1.5"/>
<text x="627" y="140" class="calloutVal" text-anchor="middle">1.7 - 6.6x</text>
<text x="627" y="157" class="calloutLabel" text-anchor="middle">Throughput (4 threads)</text>

<rect x="560" y="185" width="135" height="50" rx="6" fill="#f0fdf4" stroke="#86efac" stroke-width="1.5"/>
<text x="627" y="205" class="calloutVal" text-anchor="middle">-37%</text>
<text x="627" y="222" class="calloutLabel" text-anchor="middle">P50 Latency</text>

<rect x="560" y="250" width="135" height="50" rx="6" fill="#f0fdf4" stroke="#86efac" stroke-width="1.5"/>
<text x="627" y="270" class="calloutVal" text-anchor="middle">-13%</text>
<text x="627" y="287" class="calloutLabel" text-anchor="middle">Heap Usage</text>

<!-- Data source note -->
<text x="30" y="355" class="subtitle">CPU profile data: empty handler endpoint (8,974 samples) to expose true framework overhead</text>
<text x="30" y="373" class="subtitle">With business logic, framework overhead is ~49%; empty handler reveals true overhead of ~63%</text>
<text x="30" y="389" class="subtitle">The remaining ~37% includes I/O, networking, and other unavoidable low-level costs</text>

<line x1="30" y1="405" x2="690" y2="405" stroke="#e5e7eb" stroke-width="1"/>

<!-- Legend -->
<text x="30" y="425" class="legendLabel">Legend:</text>
<rect x="75" y="413" width="12" height="12" rx="2" fill="#ef4444"/>
<text x="91" y="424" class="legendLabel">Parameter</text>
<rect x="155" y="413" width="12" height="12" rx="2" fill="#f97316"/>
<text x="171" y="424" class="legendLabel">Return Value</text>
<rect x="250" y="413" width="12" height="12" rx="2" fill="#f59e0b"/>
<text x="266" y="424" class="legendLabel">Reflection</text>
<rect x="330" y="413" width="12" height="12" rx="2" fill="#eab308"/>
<text x="346" y="424" class="legendLabel">Validation</text>
<rect x="405" y="413" width="12" height="12" rx="2" fill="#ec4899"/>
<text x="421" y="424" class="legendLabel">Route</text>
<rect x="465" y="413" width="12" height="12" rx="2" fill="#22c55e"/>
<text x="481" y="424" class="legendLabel">Business + IO + Other</text>

</svg>