<svg xmlns="http://www.w3.org/2000/svg" width="720" height="330" viewBox="0 0 720 330">
<style>
 .card { fill: #f8fafc; }
 .title { font: bold 15px -apple-system,BlinkMacSystemFont,sans-serif; fill: #1f2937; }
 .subtitle { font: 12px -apple-system,BlinkMacSystemFont,sans-serif; fill: #6b7280; }
 .sectionLabel { font: bold 13px -apple-system,BlinkMacSystemFont,sans-serif; fill: #1f2937; }
 .barLabel { font: bold 11px -apple-system,BlinkMacSystemFont,sans-serif; fill: #fff; text-anchor: middle; }
 .barPct { font: 10px -apple-system,BlinkMacSystemFont,sans-serif; fill: #fff; text-anchor: middle; }
 .arrowLabel { font: 12px -apple-system,BlinkMacSystemFont,sans-serif; fill: #2563eb; text-anchor: middle; }
 .calloutText { font: 11px -apple-system,BlinkMacSystemFont,sans-serif; fill: #374151; }
 .footnote { font: 11px -apple-system,BlinkMacSystemFont,sans-serif; fill: #9ca3af; }
</style>

<rect class="card" x="0" y="0" width="720" height="330" rx="12"/>

<text x="30" y="28" class="title">瓶颈转移：IO → CPU</text>
<text x="30" y="46" class="subtitle">批量处理消除 IO 瓶颈后，框架 CPU 开销成为新的瓶颈</text>

<!-- ===== BEFORE: IO is bottleneck ===== -->
<text x="30" y="75" class="sectionLabel">Before：IO 是瓶颈</text>

<!-- Bar: IO dominant, CPU small -->
<rect x="30" y="90" width="400" height="32" rx="3" fill="#ef4444"/>
<text x="230" y="110" class="barLabel">IO 瓶颈  ████████████████████████████████████████</text>

<rect x="430" y="90" width="120" height="32" rx="3" fill="#22c55e"/>
<text x="490" y="110" class="barLabel" font-size="9" fill="#1f2937">CPU 正常</text>

<text x="30" y="142" class="subtitle">IO 掩盖了 CPU 问题——「反正都在等 IO，CPU 不是瓶颈」</text>

<!-- ===== Arrow ===== -->
<line x1="230" y1="155" x2="230" y2="180" stroke="#2563eb" stroke-width="2" stroke-dasharray="4,3"/>
<polygon points="230,180 222,170 238,170" fill="#2563eb"/>
<text x="110" y="170" class="arrowLabel" text-anchor="end">引入批量处理消除 IO 瓶颈</text>

<!-- ===== AFTER: CPU is bottleneck ===== -->
<text x="30" y="205" class="sectionLabel">After：CPU 成为新瓶颈</text>

<rect x="30" y="220" width="120" height="32" rx="3" fill="#22c55e"/>
<text x="90" y="240" class="barLabel" font-size="9" fill="#1f2937">IO 已优化</text>

<rect x="150" y="220" width="400" height="32" rx="3" fill="#f97316"/>
<text x="350" y="240" class="barLabel">CPU 瓶颈  ████████████████████████████████████████</text>

<text x="30" y="272" class="subtitle">IO 不再阻塞 → CPU 开销暴露 → 需要基础优化来消除框架 CPU 消耗</text>

<!-- Right side annotation box -->
<rect x="565" y="75" width="130" height="90" rx="6" fill="#fff7ed" stroke="#fdba74" stroke-width="1.5"/>
<text x="630" y="95" class="barLabel" fill="#c2410c" text-anchor="middle">核心洞察</text>
<text x="630" y="115" class="calloutText" text-anchor="middle">IO 优化暴露了</text>
<text x="630" y="130" class="calloutText" text-anchor="middle">第二层瓶颈</text>
<text x="630" y="148" class="calloutText" text-anchor="middle">瓶颈必然转移</text>

<line x1="550" y1="120" x2="565" y2="120" stroke="#fdba74" stroke-width="1.5" stroke-dasharray="4,3"/>

</svg>